<svg width="92" height="92" viewBox="0 0 92 92" fill="none" xmlns="http://www.w3.org/2000/svg">
<circle cx="46" cy="46" r="46" fill="#B63434"/>
<path d="M41.8008 27.25H50.1992V52.25H41.8008V27.25ZM42.9727 63.5781C42.1914 62.7318 41.8008 61.7227 41.8008 60.5508C41.8008 59.3789 42.1914 58.4023 42.9727 57.6211C43.819 56.8398 44.8281 56.4492 46 56.4492C47.1719 56.4492 48.1484 56.8398 48.9297 57.6211C49.776 58.4023 50.1992 59.3789 50.1992 60.5508C50.1992 61.7227 49.776 62.7318 48.9297 63.5781C48.1484 64.3594 47.1719 64.75 46 64.75C44.8281 64.75 43.819 64.3594 42.9727 63.5781Z" fill="white"/>
</svg>
