<svg width="570" height="75" viewBox="0 0 570 75" fill="none" xmlns="http://www.w3.org/2000/svg">
<g clip-path="url(#clip0_15_212)">
<path d="M112.1 14.3C120 14.3 126.4 17.8 129.1 20.4L124.6 25.9C122.4 23.9 117.5 21.2 112.1 21.2C102.2 21.2 96 28 96 37.3C96 46.6 101.9 53.4001 112.2 53.4001C118.2 53.4001 123.4 50.2001 125.6 48L129.9 53.7001C127.2 56.5 120.4 60.3 112.1 60.3C97.5 60.3 88.5 50.5 88.5 37.2001C88.5 24.1 97.8 14.3 112.1 14.3Z" fill="#213A8B"/>
<path d="M157.1 14.3C170.6 14.3 180.4 24.1001 180.4 37.4001C180.4 50.7001 170.6 60.5 157.1 60.5C143.6 60.5 133.8 50.7001 133.8 37.4001C133.8 24.1001 143.6 14.3 157.1 14.3ZM157.1 53.5C166.2 53.5 173 46.6001 173 37.4001C173 28.1001 166.3 21.3 157.1 21.3C148 21.3 141.2 28.2001 141.2 37.4001C141.2 46.6001 148 53.5 157.1 53.5Z" fill="#213A8B"/>
<path d="M226.8 46.6C226.8 53.1 222.6 59.4001 211.9 59.4001H188.4V15.3H210.5C219.5 15.3 224.6 20.8 224.6 27.1C224.6 30.6 223 33.8001 219.1 36.4001C223 37.7001 226.8 40.6 226.8 46.6ZM195.6 22.2V34L209.6 33.9001C214.6 33.9001 217.2 31.1 217.2 27.8C217.2 24.8 215 22.2 210.6 22.2H195.6ZM212.3 52.5C217.4 52.5 219.4 49.7 219.4 46.6C219.4 43.3 217.1 40.5 212.5 40.5H195.7V52.5H212.3Z" fill="#213A8B"/>
<path d="M255.8 36.7001L275.3 59.4001H265.7L249.4 40.1H241V59.4001H233.7V15.3H241V33.5H249.4L265.3 15.3H275L255.8 36.7001Z" fill="#213A8B"/>
<path d="M297.7 14.3C311.2 14.3 321 24.1001 321 37.4001C321 50.7001 311.2 60.5 297.7 60.5C284.2 60.5 274.4 50.7001 274.4 37.4001C274.4 24.1001 284.2 14.3 297.7 14.3ZM297.7 53.5C306.8 53.5 313.6 46.6001 313.6 37.4001C313.6 28.1001 306.9 21.3 297.7 21.3C288.6 21.3 281.8 28.2001 281.8 37.4001C281.8 46.6001 288.6 53.5 297.7 53.5Z" fill="#213A8B"/>
<path d="M369.9 15.3H376.9V59.4001H369.6V26.6L355.1 46H350.7L336.2 26.6V59.4001H328.9V15.3H335.9L352.9 37.9001L369.9 15.3Z" fill="#213A8B"/>
<path d="M410.1 33.3C419.8 33.3 425.1 39 425.1 46.3C425.1 53.6 419.8 59.4001 410.6 59.4001H386.6V15.3H421V22.2H393.9V33.3H410.1ZM410.3 52.5C415.3 52.5 417.6 49.7001 417.6 46.4001C417.6 43.1001 415.3 40.3 410.3 40.3H393.9V52.5H410.3Z" fill="#213A8B"/>
<path d="M465.4 59.4001L460.6 48.4001H439.7L434.9 59.4001H427L446.2 15.3H454.2L473.4 59.4001H465.4ZM442.6 41.8H457.8L450.2 24.2L442.6 41.8Z" fill="#213A8B"/>
<path d="M511.5 15.3H518.8V59.4001H511.5V40.5H486V59.4001H478.7V15.3H486V33.6H511.5V15.3Z" fill="#213A8B"/>
<path d="M550.6 36.7001L570.2 59.4001H560.5L544.2 40.1H535.8V59.4001H528.5V15.3H535.8V33.5H544.2L560.1 15.3H569.8L550.6 36.7001Z" fill="#213A8B"/>
<path d="M1.2002 37.4C1.2002 57.6 17.6002 74 37.9002 74C38.4002 74 38.9002 74 39.4002 74V60.0999H37.9002C25.3002 60.0999 15.2002 49.9 15.2002 37.4C15.2002 24.9 25.4002 14.7 37.9002 14.7H39.4002V0.699951C38.9002 0.699951 38.4002 0.699951 37.9002 0.699951C17.6002 0.699951 1.2002 17.1 1.2002 37.4Z" fill="#DA5155"/>
<path d="M45.2 1.40002V20.5H37.9C28.5 20.5 21 28 21 37.4C21 46.7 28.6 54.3 37.9 54.3H45.2V73.4C61.9 70 74.5 55.2 74.5 37.5C74.5 19.6 61.9 4.80002 45.2 1.40002Z" fill="#213A8B"/>
</g>
<defs>
<clipPath id="clip0_15_212">
<rect width="569.3" height="74.3" fill="white"/>
</clipPath>
</defs>
</svg>
